<?xml version="1.0" encoding="UTF-8"?>
<svg version="1.1" xmlns="http://www.w3.org/2000/svg" width="96" height="96">
<path d="M0 0 C1.32 0 2.64 0 4 0 C4 3.96 4 7.92 4 12 C6.31 12 8.62 12 11 12 C11 8.04 11 4.08 11 0 C12.32 0 13.64 0 15 0 C15 9.24 15 18.48 15 28 C13.68 28 12.36 28 11 28 C11 24.04 11 20.08 11 16 C8.69 16 6.38 16 4 16 C4 19.96 4 23.92 4 28 C2.68 28 1.36 28 0 28 C0 18.76 0 9.52 0 0 Z M21 0 C25.62 0 30.24 0 35 0 C35 4.29 35 8.58 35 13 C31.7 13 28.4 13 25 13 C25 17.95 25 22.9 25 28 C23.68 28 22.36 28 21 28 C21 18.76 21 9.52 21 0 Z M25 4 C25 5.65 25 7.3 25 9 C26.98 9 28.96 9 31 9 C31 7.35 31 5.7 31 4 C29.02 4 27.04 4 25 4 Z " fill="#FC0000" transform="translate(30,18)"/>
<path d="M0 0 C2.64 1.98 5.28 3.96 8 6 C10.31 4.02 12.62 2.04 15 0 C15 9.24 15 18.48 15 28 C13.68 28 12.36 28 11 28 C10.67 22.72 10.34 17.44 10 12 C9.01 12.66 8.02 13.32 7 14 C6.34 13.34 5.68 12.68 5 12 C4.67 17.28 4.34 22.56 4 28 C2.68 28 1.36 28 0 28 C0 18.76 0 9.52 0 0 Z " fill="#4DA6FF" transform="translate(30,50)"/>
<path d="M0 0 C4.62 0 9.24 0 14 0 C14 4.29 14 8.58 14 13 C10.7 13 7.4 13 4 13 C4 17.95 4 22.9 4 28 C2.68 28 1.36 28 0 28 C0 18.76 0 9.52 0 0 Z M4 4 C4 5.65 4 7.3 4 9 C5.98 9 7.96 9 10 9 C10 7.35 10 5.7 10 4 C8.02 4 6.04 4 4 4 Z " fill="#4DA6FF" transform="translate(51,50)"/>
</svg>
